{"title":"The Last Departure.2015.WEBRip.RR.mp4","uid":14287364,"size":1363192160,"categoryP":"video","categoryS":"movies","magnet":"?xt=urn:btih:356e699e97d885179ad6054d28593f574badb032&amp;dn=The+Last+Departure.2015.WEBRip.RR.mp4&amp;tr=udp%3A%2F%2Ftracker.leechers-paradise.org%3A6969&amp;tr=udp%3A%2F%2Fzer0day.ch%3A1337&amp;tr=udp%3A%2F%2Fopen.demonii.com%3A1337&amp;tr=udp%3A%2F%2Ftracker.coppersurfer.tk%3A6969&amp;tr=udp%3A%2F%2Fexodus.desync.com%3A6969","seeders":0,"leechers":2,"uploader":"RadioResearch","files":1,"time":1460414653,"description":"Fear and terror reach Northern Air Base 3, a remote airfield in the north country wilderness. On her last flight of the season, Sarah (Kelli Reynolds) awakens an evil that won't let her escape. The reports of missing people, the stories the natives told over the years. They were all true! Sarah finds out first hand, what happens to people that try to leave this place. \r\n\r\nThis film does not have an IMDB entry.  It's an Indie production from CampusFilms Studios, who also do not have an IMDB entry!\r\n\r\nEnjoy,\r\nRR\r\n\r\nScreencaps:  http://i.imgur.com/S6rztKn.jpg\r\n\r\n\r\nVideo\r\nID                                       : 1\r\nFormat                                   : AVC\r\nFormat/Info                              : Advanced Video Codec\r\nFormat profile                           :   \r\nFormat settings, CABAC                   : Yes\r\nFormat settings, ReFrames                : 4 frames\r\nCodec ID                                 : avc1\r\nCodec ID/Info                            : Advanced Video Coding\r\nDuration                                 : 48mn 57s\r\nBit rate                                 : 3 452 Kbps\r\nWidth                                    : 1 920 pixels\r\nHeight                                   : 1 080 pixels\r\nDisplay aspect ratio                     : 16:9\r\nFrame rate mode                          : Constant\r\nFrame rate                               : 24.000 fps\r\nColor space                              : YUV\r\nChroma subsampling                       : 4:2:0\r\nBit depth                                : 8 bits\r\nScan type                                : Progressive\r\nBits/(Pixel*Frame)                       : 0.069\r\nStream size                              : 1.18 GiB (93%)\r\nWriting library                          : x264 core 148 r11 73ae2d1\r\nEncoding settings                        : cabac=1 / ref=4 / deblock=1:0:0 / analyse=0x3:0x113 / me=umh / subme=8 / psy=1 / psy_rd=1.00:0.00 / mixed_ref=1 / me_range=16 / chroma_me=1 / trellis=1 / 8x8dct=1 / cqm=0 / deadzone=21,11 / fast_pskip=1 / chroma_qp_offset=-2 / threads=34 / lookahead_threads=5 / sliced_threads=0 / nr=0 / decimate=1 / interlaced=0 / bluray_compat=0 / stitchable=1 / constrained_intra=0 / bframes=3 / b_pyramid=2 / b_adapt=2 / b_bias=0 / direct=3 / weightb=1 / open_gop=0 / weightp=2 / keyint=infinite / keyint_min=24 / scenecut=40 / intra_refresh=0 / rc_lookahead=50 / rc=crf / mbtree=1 / crf=20.0 / qcomp=0.60 / qpmin=5 / qpmax=69 / qpstep=4 / vbv_maxrate=4950 / vbv_bufsize=13500 / crf_max=0.0 / nal_hrd=none / filler=0 / ip_ratio=1.40 / aq=1:1.00\r\nEncoded date                             : UTC 2015-09-28 04:42:13\r\nTagged date                              : UTC 2015-09-28 04:42:13\r\nColor range                              : Limited\r\nColor primaries                          : BT.709\r\nTransfer characteristics                 : BT.709\r\nMatrix coefficients                      : BT.709\r\n\r\nAudio\r\nID                                       : 2\r\nFormat                                   : AAC\r\nFormat/Info                              : Advanced Audio Codec\r\nFormat profile                           : LC\r\nCodec ID                                 : 40\r\nDuration                                 : 48mn 57s\r\nBit rate mode                            : Variable\r\nBit rate                                 : 256 Kbps\r\nChannel(s)                               : 2 channels\r\nChannel positions                        : Front: L R\r\nSampling rate                            : 48.0 KHz\r\nFrame rate                               : 46.875 fps (1024 spf)\r\nCompression mode                         : Lossy\r\nStream size                              : 89.6 MiB (7%)\r\nEncoded date                             : UTC 2015-09-28 04:42:13\r\nTagged date                              : UTC 2015-09-28 04:42:13","torrent":{"xt":"urn:btih:356e699e97d885179ad6054d28593f574badb032","amp;dn":"The+Last+Departure.2015.WEBRip.RR.mp4","amp;tr":["udp%3A%2F%2Ftracker.leechers-paradise.org%3A6969","udp%3A%2F%2Fzer0day.ch%3A1337","udp%3A%2F%2Fopen.demonii.com%3A1337","udp%3A%2F%2Ftracker.coppersurfer.tk%3A6969","udp%3A%2F%2Fexodus.desync.com%3A6969"],"infoHash":"356e699e97d885179ad6054d28593f574badb032","infoHashBuffer":{"type":"Buffer","data":[53,110,105,158,151,216,133,23,154,214,5,77,40,89,63,87,75,173,176,50]},"announce":[],"urlList":[]}}